HIERARCHY
ROOT root     
{
	OFFSET 0.0000 0.0000 0.0000
	CHANNELS 6 Xposition Yposition Zposition Zrotation Yrotation Xrotation
	JOINT pelvis   
	{
		OFFSET 0.0000 0.0000 0.0000
		CHANNELS 3 Zrotation Yrotation Xrotation
		JOINT thorax   
		{
			OFFSET 0.0000 23.0750 -5.0000
			CHANNELS 3 Zrotation Yrotation Xrotation
			JOINT rclavicle
			{
				OFFSET 0.0000 28.0009 0.0000
				CHANNELS 3 Zrotation Yrotation Xrotation
				JOINT rhumerus 
				{
					OFFSET -18.5725 5.5939 0.0000
					CHANNELS 3 Zrotation Yrotation Xrotation
					JOINT rradius  
					{
						OFFSET -24.8459 0.0000 0.0000
						CHANNELS 3 Zrotation Yrotation Xrotation
						JOINT rhand    
						{
							OFFSET -24.5477 0.0000 0.0000
							CHANNELS 3 Zrotation Yrotation Xrotation
							End Site
							{
								OFFSET -8.1826 0.0000 0.0000
							}
						}
					}
				}
			}
			JOINT lclavicle
			{
				OFFSET 0.0000 28.0009 0.0000
				CHANNELS 3 Zrotation Yrotation Xrotation
				JOINT lhumerus 
				{
					OFFSET 18.5725 5.5939 0.0000
					CHANNELS 3 Zrotation Yrotation Xrotation
					JOINT lradius  
					{
						OFFSET 24.8459 0.0000 0.0000
						CHANNELS 3 Zrotation Yrotation Xrotation
						JOINT lhand    
						{
							OFFSET 24.5477 0.0000 0.0000
							CHANNELS 3 Zrotation Yrotation Xrotation
							End Site
							{
								OFFSET 8.1826 0.0000 0.0000
							}
						}
					}
				}
			}
			JOINT head     
			{
				OFFSET 0.0000 35.2030 0.0000
				CHANNELS 3 Zrotation Yrotation Xrotation
				End Site
				{
					OFFSET 0.0000 11.7343 0.0000
				}
			}
		}
		JOINT rfemur   
		{
			OFFSET -8.2817 0.0000 0.0000
			CHANNELS 3 Zrotation Yrotation Xrotation
			JOINT rtibia   
			{
				OFFSET 0.0000 -43.3627 0.0000
				CHANNELS 3 Zrotation Yrotation Xrotation
				JOINT rfoot    
				{
					OFFSET 0.0000 -38.2947 0.0000
					CHANNELS 3 Zrotation Yrotation Xrotation
					JOINT rtoes    
					{
						OFFSET 0.0000 0.0000 16.6054
						CHANNELS 3 Zrotation Yrotation Xrotation
						End Site
						{
							OFFSET 0.0000 0.0000 5.5351
						}
					}
				}
			}
		}
		JOINT lfemur   
		{
			OFFSET 8.2817 0.0000 0.0000
			CHANNELS 3 Zrotation Yrotation Xrotation
			JOINT ltibia   
			{
				OFFSET 0.0000 -43.3627 0.0000
				CHANNELS 3 Zrotation Yrotation Xrotation
				JOINT lfoot    
				{
					OFFSET 0.0000 -38.2947 0.0000
					CHANNELS 3 Zrotation Yrotation Xrotation
					JOINT ltoes    
					{
						OFFSET 0.0000 0.0000 16.6054
						CHANNELS 3 Zrotation Yrotation Xrotation
						End Site
						{
							OFFSET 0.0000 0.0000 5.5351
						}
					}
				}
			}
		}
	}
}
MOTION
Frames: 9
Frame Time: .0333333
-86.39 87.049 -4.6757 -27.2134 85.687 -5.66535 0 -0 0 4.35932 -11.9533 -10.7347 28.8165 -13.7132 5.35323e-05 48.3647 -4.64438 4.61238 -2.04366e-06 83.1106 -2.30554e-06 6.13802 3.15551 0.1692 -24.1267 13.147 -0.000133236 -38.9346 -2.40319 3.98008 -3.56799e-06 -87.5173 3.41701e-06 8.27594 -3.93567 -0.284795 5.52979 10.3258 -5.1311 3.64175 -3.13466 -38.794 -0 -0 20.3025 4.91318e-06 -6.31794 -6.78413 0.749312 -2.01211e-06 -60.8459 1.77595 8.9981 -4.80369 -0 -0 15.3139 -9.16054e-07 4.07421 10.1941 0.722192 6.35639e-06 -64.3865 
-85.242 86.872 -4.554 -24.7953 85.6958 -3.3454 0 -0 0 4.58272 -12.0648 -10.7515 28.7419 -13.7633 9.41121e-06 48.5398 -4.92033 3.94841 -4.39056e-06 83.0091 -4.63943e-06 6.4442 3.1246 0.1759 -24.022 13.1916 -1.41369e-05 -38.5271 -2.38887 3.87544 0 -88.0534 0 8.09629 -3.82264 -0.2706 4.92995 10.3779 -5.39125 3.43475 -2.7391 -38.6845 -0 -0 18.7914 -9.07362e-07 -5.77038 -5.4497 0.549914 1.04656e-06 -61.9766 1.78586 8.994 -4.08059 -0 -0 15.4905 3.26833e-06 3.94158 10.7781 0.738199 -4.56178e-06 -65.8197 
-84.072 86.673 -4.4356 -22.0543 85.7247 -0.733542 0 -0 0 4.77567 -12.1742 -10.7756 28.6871 -13.7985 -0.000112714 48.6848 -5.20091 3.23801 -2.583e-06 82.8853 -2.28057e-06 6.69983 3.08414 0.180603 -23.941 13.2239 -0.000100932 -38.0891 -2.36774 3.78428 -5.87346e-06 -88.4967 5.72249e-06 7.95464 -3.7413 -0.260203 4.31288 10.3739 -5.62349 3.20565 -2.43458 -38.5763 -0 -0 17.7338 3.05293e-06 -5.21936 -3.86779 0.352999 3.28981e-06 -63.231 1.76972 8.94983 -3.36207 -0 -0 15.7535 -2.2138e-06 3.83098 11.3324 0.753902 7.58367e-07 -67.4076 
-82.884 86.457 -4.3185 -19.1189 85.7758 2.04818 0 -0 0 4.95739 -12.2666 -10.8169 28.6516 -13.8189 -9.15703e-05 48.7891 -5.48105 2.49082 -2.22508e-06 82.7182 -2.52754e-06 6.87737 3.04221 0.1828 -23.8968 13.2405 0.000102346 -37.6214 -2.34902 3.70998 1.08671e-05 -88.8578 -1.10807e-05 7.85897 -3.69244 -0.2537 3.67229 10.3104 -5.81947 2.96904 -2.20814 -38.4959 -0 -0 17.1842 -9.01961e-07 -4.6578 -2.11897 0.172599 1.12792e-06 -64.5232 1.74122 8.87253 -2.67201 -0 -0 16.1201 5.83202e-06 3.73675 11.8613 0.769111 -3.49963e-06 -69.1793 
-81.684 86.229 -4.2005 -16.1262 85.819 4.88604 0 -0 0 5.14412 -12.3296 -10.89 28.64 -13.821 9.36044e-05 48.8415 -5.7595 1.71714 -2.46264e-06 82.5086 -2.16012e-06 6.95426 3.00754 0.1828 -23.892 13.2415 7.62971e-05 -37.135 -2.33686 3.65467 9.01075e-06 -89.1367 -9.14155e-06 7.81288 -3.67553 -0.251096 3.00462 10.1867 -5.96989 2.73284 -2.04239 -38.4683 -0 -0 17.1647 2.65373e-07 -4.08124 -0.298806 0.0213001 3.27273e-08 -65.6944 1.71096 8.76724 -2.03993 -0 -0 16.611 1.53865e-07 3.65042 12.3753 0.783298 1.86945e-06 -71.1335 
-80.477 85.994 -4.081 -13.1627 85.8688 7.68397 0 -0 0 5.34177 -12.3546 -10.987 28.652 -13.8117 -5.49471e-05 48.8335 -6.01893 0.937899 -4.23964e-06 82.2527 -4.39625e-06 6.9076 2.98897 0.180394 -23.9281 13.2283 -0.000127728 -36.6461 -2.33815 3.61812 1.93737e-05 -89.3551 -1.95873e-05 7.81675 -3.68477 -0.2518 2.30843 10.0055 -6.07149 2.5035 -1.92591 -38.4939 -0 -0 17.6665 8.63912e-07 -3.48027 1.4854 -0.0902984 -3.07209e-07 -66.5537 1.68735 8.63822 -1.47218 -0 -0 17.2353 -1.30874e-05 3.56343 12.8939 0.796194 1.10558e-06 -73.2227 
-79.265 85.755 -3.9596 -10.3093 85.8954 10.3772 0 -0 0 5.55194 -12.34 -11.1102 28.6862 -13.7867 -9.12809e-05 48.7673 -6.25359 0.168862 -1.99591e-06 81.9353 -2.29853e-06 6.72704 2.99256 0.175895 -23.9952 13.1992 6.61694e-05 -36.1757 -2.3527 3.59975 0 -89.4856 0 7.86385 -3.71393 -0.25531 1.58721 9.77278 -6.11826 2.28193 -1.84767 -38.5688 -0 -0 18.6471 1.17441e-07 -2.85675 3.12144 -0.155698 1.88164e-06 -66.8471 1.67388 8.48549 -0.986096 -0 -0 18.0075 2.99811e-06 3.46564 13.4394 0.806404 -1.15641e-05 -75.3538 
-78.049 85.517 -3.8368 -7.58088 85.9215 12.9338 0 -0 0 5.76832 -12.2883 -11.24 28.7398 -13.7526 -3.83406e-06 48.6435 -6.44152 -0.566453 -2.19783e-06 81.5398 -1.89514e-06 6.40621 3.0213 0.169101 -24.0831 13.159 8.31756e-05 -35.7482 -2.38035 3.59611 3.04914e-05 -89.4897 -3.07687e-05 7.94386 -3.75439 -0.260792 0.847778 9.49709 -6.11131 2.06991 -1.80289 -38.6668 -0 -0 20.0295 1.61142e-06 -2.21817 4.50648 -0.174405 -2.49225e-06 -66.4591 1.67262 8.3085 -0.57519 -0 -0 18.9282 1.2139e-05 3.3492 14.0407 0.813404 1.45107e-06 -77.3964 
-76.832 85.286 -3.7108 -5.13951 85.9327 15.2005 0 -0 0 5.99543 -12.207 -11.3732 28.8083 -13.7093 -8.94132e-05 48.4711 -6.57305 -1.25318 -1.4752e-06 81.0553 -1.26111e-06 5.95245 3.07254 0.159799 -24.1816 13.1118 -7.40932e-05 -35.3888 -2.41988 3.60609 3.47265e-05 -89.4436 -3.5203e-05 8.04351 -3.79874 -0.267204 0.0990945 9.18965 -6.0498 1.86878 -1.77066 -38.7541 -0 -0 21.6987 1.02428e-06 -1.60278 5.55589 -0.155205 -2.30398e-06 -65.2534 1.69385 8.11314 -0.252702 -0 -0 20.0118 1.97105e-06 3.19958 14.7172 0.813601 -6.55464e-07 -79.1899 
